# xmcd
#
# Track frame offsets: 
#        150
#        17542
#        29574
#        54718
#        67048
#        92187
#        116301
#        129825
#        146565
#        167087
#        190511
#        221259
#        234574
#        244992
#        271636
#        290637
#        301868
#        327913
#
# Disc length: 4511 seconds
#
# Revision: 2
# Processed by: cddbd v1.5.2PL0 Copyright (c) Steve Scherf et al.
# Submitted via: ExactAudioCopy v0.99pb3
#
DISCID=fb119d12
DTITLE=The Yardbirds - Five Live Yardbirds
DYEAR=1964
DGENRE=Blues
TTITLE0=Too Much Monkey Business
TTITLE1=I Got Love If You Want It
TTITLE2=Smokestack Lightnin'
TTITLE3=Good Morning Little Schoolgirl
TTITLE4=Respectable
TTITLE5=Five Long Years
TTITLE6=Pretty Girl
TTITLE7=Louise
TTITLE8=I'm A Man
TTITLE9=Here 'Tis
TTITLE10=Smokestack Lightnin' (bonus track)
TTITLE11=You Can't Judge A Book By Looking At The Cover (bonus track)
TTITLE12=Let It Rock (bonus track)
TTITLE13=I Wish You Would (bonus track)
TTITLE14=Who Do You Love (bonus track)
TTITLE15=Honey In Your Hips (bonus track)
TTITLE16=I'm A Man (bonus track)
TTITLE17=Shapes Of Things (bonus track)
EXTD=
EXTT0=
EXTT1=
EXTT2=
EXTT3=
EXTT4=
EXTT5=
EXTT6=
EXTT7=
EXTT8=
EXTT9=
EXTT10=
EXTT11=
EXTT12=
EXTT13=
EXTT14=
EXTT15=
EXTT16=
EXTT17=
PLAYORDER=
